<svg xmlns="http://www.w3.org/2000/svg" viewBox="0 0 1195.82 553.96"><title>简豆 LOGO20191108-01</title><g id="背景_图像" data-name="背景 图像"><path d="M1304.27,269q-12.75-13.28-31.89-13.29H984.82q-18.06,0-30.28,12.23c-8.87,8.87-13.12,19.12-12.76,30.83v91.95q-.54,16.47,13.28,30.3a47,47,0,0,0,29.76,12.58h287.56q18.06,0,30.83-13.29a45,45,0,0,0,12.23-29.75v-92C1315.07,286.94,1311.35,277.19,1304.27,269ZM1273,376.24a14.2,14.2,0,0,1-14.15,14.16h-258.7A14.2,14.2,0,0,1,986,376.24v-1.59c-.05-.53-.08-1-.08-1.59V317.25c0-.54,0-1.07.08-1.6v-1.81a14.21,14.21,0,0,1,14.16-14.16h258.7A14.2,14.2,0,0,1,1273,313.84Z" transform="translate(-278.38 -61.91)" style="fill:#fff"/><path d="M1333.74,139.7q10.26.53,15.4,5.84,5.63,5.86,5.64,16a26.2,26.2,0,0,1-5.64,15.4q-5.66,6.93-15.4,6.92H924.06c-7.19,0-12.51-2.14-15.91-6.37q-5.65-5.87-5.66-15.95a26.19,26.19,0,0,1,5.66-15.42c4.1-4.25,9.39-6.37,15.91-6.37Z" transform="translate(-278.38 -61.91)" style="fill:#fff"/><rect x="624.27" y="77.78" width="43.16" height="24.8" style="fill:#fff"/><rect x="1044.24" y="77.67" width="32.16" height="21.92" style="fill:#fff"/><path d="M1184.19,571.74h173.28c7.08.33,12.39,2.3,16,5.84,3.88,3.9,5.84,9.21,5.84,15.94a25.89,25.89,0,0,1-5.84,15.4q-5.87,6.93-16,6.94H900.36c-7.43,0-12.94-2.14-16.48-6.39-3.9-3.9-5.84-9.23-5.84-16a25.74,25.74,0,0,1,5.84-15.41q6.38-6.37,16.48-6.37Z" transform="translate(-278.38 -61.91)" style="fill:#fff"/><rect x="599.64" y="531.85" width="43.68" height="22.08" style="fill:#fff"/><rect x="1063.28" y="531.4" width="37.6" height="22.56" style="fill:#fff"/><path d="M1087.44,615.62c-51.5,0-93.42-59.89-93.42-121.7h37.37c0,41.21,25.14,84.33,56,84.33Z" transform="translate(-278.38 -61.91)" style="fill:#fff"/><circle cx="734.35" cy="431.57" r="18.7" style="fill:#fff"/><path d="M1169.14,615.62c51.51,0,93.42-59.89,93.42-121.7h-37.37c0,41.21-25.14,84.33-56,84.33Z" transform="translate(-278.38 -61.91)" style="fill:#fff"/><circle cx="965.48" cy="431.57" r="18.7" style="fill:#fff"/><path d="M632.42,327.9q-10.09-8.5-25-8.5H449.58q-11.71-.56-20.73,8.5a28.45,28.45,0,0,0-8,20.18V501.71q-.56,13.28,8.5,24.45c4.6,5.66,11.33,8.83,20.2,9.56H607.44q13.27,0,23.38-10.11a34.66,34.66,0,0,0,10.63-23.9V348.08A29.65,29.65,0,0,0,632.42,327.9ZM608.83,475.44a15.47,15.47,0,0,1-15.47,15.47h0v0H522v0H474.83a15.47,15.47,0,0,1-15.47-15.47V375.6a15.48,15.48,0,0,1,15.47-15.48H593.36a15.48,15.48,0,0,1,15.47,15.48Z" transform="translate(-278.38 -61.91)" style="fill:#fff"/><rect x="157.21" y="342.24" width="158.23" height="40.8" rx="19.39" style="fill:#fff"/><path d="M362.4,179.6q-6.37,9-11.68,16Q331.56,220,314.05,233.28c-6,4.27-11.88,6.2-17.55,5.86a22,22,0,0,1-13.82-8.52,24.83,24.83,0,0,1-4.25-15.4c.72-5.66,3.89-10.81,9.56-15.42a264.19,264.19,0,0,0,33-33.48,203.48,203.48,0,0,0,27.11-46.24c2.83-6,7.08-10.11,12.75-12.22q7.45-3.21,15.95.51,8,4.81,11.17,11.71,2.65,8.49-2.14,18.59l-1.06,1.08H505.39q9,0,14.34,5.29A20.64,20.64,0,0,1,525,159.4c0,5.68-1.77,10.27-5.31,13.81a18.66,18.66,0,0,1-14.34,6.39H458.61c2.48,6,5,13,7.45,20.73q2.1,10.63-1.61,17.55A20.94,20.94,0,0,1,451.17,228c-6,1.42-11.35.89-15.95-1.59q-6.9-5.31-10.09-15.42-4.78-15.94-9.58-24.45a16.73,16.73,0,0,1-3.17-6.91Z" transform="translate(-278.38 -61.91)" style="fill:#fff"/><path d="M590.42,179.6h-1.06L586.17,186q-12.75,21.78-25.51,34.54c-5.31,5.3-10.82,8-16.48,8a27,27,0,0,1-14.88-5.84c-4.26-4.6-6.37-9.56-6.37-14.89a24.43,24.43,0,0,1,7.44-16.47,144.49,144.49,0,0,0,21.79-29.76,132.21,132.21,0,0,0,15.94-38.28q3.74-10.62,10.64-14.34a22.36,22.36,0,0,1,15.93-1.61q9,3.19,12.77,10.11c2.47,5.31,2.65,11.35.53,18.06a20.06,20.06,0,0,0-1.6,4.27H764.76q9,0,14.36,5.29a20.64,20.64,0,0,1,5.31,14.36c0,5.68-1.77,10.27-5.31,13.81a18.7,18.7,0,0,1-14.36,6.39H690.88c2.14,6,4.43,13,6.92,20.73q2.1,10.63-1.61,17.55A20.94,20.94,0,0,1,682.91,228c-6,1.42-11.35.89-15.95-1.59q-8-4.78-10.09-15.94-6.37-19.66-11.69-30.84Z" transform="translate(-278.38 -61.91)" style="fill:#fff"/><path d="M359.23,240.19c-.37-6,1.77-11.33,6.36-15.94s9.75-7.08,15.42-7.43,11.33,2.12,17,7.43q17,14.88,36.14,40.92,6.38,9.58,4.78,18.07c-1.06,5.69-4.25,10.63-9.56,14.88-5.31,3.54-10.82,4.79-16.47,3.73q-9.06-2.12-16-11.68-16-21.78-28.7-33Q359.74,248.71,359.23,240.19Z" transform="translate(-278.38 -61.91)" style="fill:#fff"/><path d="M42.55,217h2.14a36,36,0,0,1,36,36V519.84a34,34,0,0,1-34,34H37.22a0,0,0,0,1,0,0V222.36A5.33,5.33,0,0,1,42.55,217Z" style="fill:#fff"/><rect x="37.22" y="217.02" width="21.76" height="37.44" style="fill:#fff"/><path d="M697.8,235.14q27.62,0,39.32,13.29t11.69,37.75V555.63q0,23.93-19.67,44.67-14.85,13.79-43.57,15.4c-16.31,0-31.76,0-58.94-.19-7.45-2.49-12.76-6.55-16-12.23a29.21,29.21,0,0,1-1.06-17.53q3.69-9.59,11.7-13.29c4-2,13.62-1.39,19.67-1.39h35q9.59-.55,16-4.27,12.75-9.59,12.75-27.63V304.77q-1.07-12.75-6.36-19.67c-4.26-3.89-10.64-5.86-19.14-5.86H499q-11.68,0-18.61-6.89a27.51,27.51,0,0,1-5.84-15.42q1.06-10.1,6.38-15.42c4.6-4.23,10.62-6.37,18.07-6.37Z" transform="translate(-278.38 -61.91)" style="fill:#fff"/><rect x="330.38" y="530.84" width="56.7" height="23.06" rx="6.17" style="fill:#fff"/></g><g id="形状_1" data-name="形状 1" style="isolation:isolate"><g id="形状_1-2" data-name="形状 1"><path d="M1443.1,102.61v-.49c4.55-1.44,8.13-4.57,8.13-9.39a10,10,0,0,0-4.06-8.42c-2.63-1.93-6-3.13-13.4-3.13a105.88,105.88,0,0,0-15.07,1.2v39.49h9.09V106.21h4.31c5,0,7.41,1.93,8.13,6,1.2,4.81,1.92,8.18,3.11,9.63h9.57c-.72-1.45-1.68-3.62-2.87-9.63C1448.84,106.94,1446.93,103.81,1443.1,102.61Zm-10.76-2.89H1428V88.4a21.7,21.7,0,0,1,5-.48c5.75,0,8.38,2.4,8.38,6C1441.43,98,1437.36,99.72,1432.34,99.72Zm1.91-37.81H1434c-22.49,0-40.43,17.34-40.43,39.49s17.94,39.73,40.43,39.73,40.19-17.58,40.19-39.73S1456.5,61.91,1434.25,61.91Zm0,71c-17.46,0-30.62-14-30.62-31.54,0-17.34,13.16-31.54,30.14-31.54h.24c17.22,0,30.14,14.2,30.14,31.78C1464.15,119,1451.23,133.18,1434.25,132.94Z" transform="translate(-278.38 -61.91)" style="fill:#fff"/></g></g></svg>