<svg width="421" height="195" xmlns="http://www.w3.org/2000/svg">
 <defs>
  <style>.cls-1{fill:#fff;}</style>
 </defs>
 <title>软山logo-2</title>
 <g>
  <title>background</title>
  <rect fill="none" id="canvas_background" height="402" width="582" y="-1" x="-1"/>
 </g>
 <g>
  <title>Layer 1</title>
  <path id="svg_1" d="m173,42.27l-23,0a2.27,2.27 0 0 0 -2.07,1.49l-53.93,147.72a1.79,1.79 0 0 0 1.65,2.53s23,3.39 28.85,-12.22s50,-137.17 50,-137.17a1.67,1.67 0 0 0 -1.5,-2.35z" class="cls-1"/>
  <path id="svg_2" d="m183.59,90.37a0.67,0.67 0 0 0 -0.68,-0.55l-25.25,0a0.92,0.92 0 0 0 -0.91,1l14.54,88.52a18.37,18.37 0 0 0 17,15.29l9.76,0.59a2.42,2.42 0 0 0 2.34,-2.68l-16.8,-102.17z" class="cls-1"/>
  <path id="svg_3" d="m142.55,15l3.09,-10.32a1.23,1.23 0 0 0 -1.19,-1.68l-15.34,0a10.59,10.59 0 0 0 -9.9,6.83l-23.33,61.32c-1.62,4.56 -3.71,7.6 -8.55,7.6l-11.33,0l2.74,-19.45a2,2 0 0 0 -2,-2.32l-22.27,0a2.78,2.78 0 0 0 -2.66,2.32l-2.73,19.45l-8.93,0l12.9,-44.75l37.36,0a1.7,1.7 0 0 0 1.47,-0.91l6.8,-12.56a0.8,0.8 0 0 0 -0.68,-1.25l-40.56,0.3l4.3,-15.18a1,1 0 0 0 -1,-1.38l-11.74,0a14.53,14.53 0 0 0 -13.76,9.78l-2.35,6.78l-14.51,0a0.92,0.92 0 0 0 -0.88,0.77l-1.81,12.88a0.65,0.65 0 0 0 0.66,0.77l12.15,0l-15.11,51.32a6.13,6.13 0 0 0 5.89,7.86l27.78,0l-4.36,31l-36.89,7.6a1.74,1.74 0 0 0 -1.36,1.41l-1.61,11.5a1.22,1.22 0 0 0 1.51,1.4l36.32,-7.49l-7.87,53.91a1.75,1.75 0 0 0 1.77,2.06s23.85,1 27.1,-18s6.65,-43.18 6.65,-43.18l16.47,-3.15a12.62,12.62 0 0 0 10,-9.76l1.12,-5.25a1,1 0 0 0 -1.27,-1.18l-24.23,4.62l3.59,-25.49s2.82,0.09 20.86,0.09s24.86,-18.17 24.86,-18.17l18.7,-45.71l55.25,0l-7.67,30.52a1.3,1.3 0 0 0 1.27,1.69s22.43,1.63 26.09,-12.59l8.75,-34l-79.56,-0.01z" class="cls-1"/>
  <path id="svg_4" d="m423,21.1l-11.45,0a18.23,18.23 0 0 0 -18.05,15.67l-19.77,139.78a1.54,1.54 0 0 1 -1.46,1.28l-116.42,0a1.09,1.09 0 0 1 -1.09,-1.28l21.29,-151.48a2.33,2.33 0 0 0 -2.35,-2.74l-9.7,0a16.51,16.51 0 0 0 -16.35,14.21l-21.65,153.37a1.46,1.46 0 0 0 1.48,1.72l169.79,0a2,2 0 0 0 2,-1.72l23.73,-168.81z" class="cls-1"/>
  <path id="svg_5" d="m351.47,8.86a2.33,2.33 0 0 0 -2.36,-2.74l-7.22,0a20.36,20.36 0 0 0 -20.17,17.57l-20.92,149.24l27.26,0l23.41,-164.07z" class="cls-1"/>
 </g>
</svg>