<?xml version="1.0" encoding="utf-8"?>
<!-- Generator: Adobe Illustrator 19.0.0, SVG Export Plug-In . SVG Version: 6.00 Build 0)  -->
<svg version="1.1" id="图层_1" xmlns="http://www.w3.org/2000/svg" xmlns:xlink="http://www.w3.org/1999/xlink" x="0px" y="0px"
	 viewBox="-265 388.9 64 64" style="enable-background:new -265 388.9 64 64;" xml:space="preserve">
<path d="M-203.7,431.7l-9.1-9.1c-1.4-1.4-3-2.2-4.9-2.5c-3.8-0.5-7.4,1.6-9.3,5.2l-1.5,3.1c-2.2-1.8-4.5-3.9-6.7-5.9
	c-2.1-1.9-3.8-4-5.5-6.1l2.7-1.3c3.6-1.9,5.8-5.8,5.2-9.3c-0.3-1.9-1.1-3.8-2.5-5.2l-9.1-9.1c-2.5-2.2-5.8-3-9.1-2.2
	c-1.4,0.3-2.7,1.1-3.8,2.2l-4.4,4.4c-4.7,4.4-4.4,12.4,0.3,22c3,6,7.7,12.4,13.2,17.9c5.8,5.8,11.8,10.2,17.9,13.2
	c4.9,2.5,9.3,3.6,13.2,3.6c3.8,0,6.9-1.1,9.1-3c0.4-0.4,0.6-0.8,0.7-1.3l3.7-3.7c1.1-1.1,1.6-2.5,2.2-3.8
	C-200.4,437.5-201.2,434.2-203.7,431.7z M-207,439.4c0,0.8-0.3,1.1-0.8,1.6l-4.4,4.4c-0.3,0.3-0.5,0.6-0.6,1c-3,1.9-8.6,1.1-15-2.1
	c-5.5-2.7-11.3-6.9-16.5-12.1c-5.2-5.2-9.3-11-12.1-16.5c-3.6-7.1-4.1-13.2-1.4-15.9c0,0,0,0,0,0l4.4-4.7c0.5-0.3,1.1-0.5,1.6-0.8
	c1.4-0.3,2.7,0,3.6,0.8l9.1,9.3c0.5,0.5,1.1,1.1,1.1,1.9c0.3,1.6-1.1,3-2.2,3.6l-5.4,2.6c-0.4,0.1-0.8,0.2-1.2,0.4
	c-0.2,0.2-0.4,0.4-0.6,0.6c-0.1,0.1-0.1,0.2-0.2,0.2c0,0-0.1,0.1-0.1,0.1c-0.1,0.1-0.1,0.2-0.2,0.3c-0.4,0.9-0.4,1.9,0.2,2.6
	c2.2,3.3,4.9,6.6,8.2,9.9c3.3,3,6.6,5.8,9.9,8.2c0.1,0.1,0.3,0.1,0.4,0.2c0,0,0.1,0.1,0.1,0.1c1.4,0.8,3,0.3,3.6-1.1l3-6.3
	c0.5-1.4,1.9-2.5,3.6-2.2c0.5,0.3,1.4,0.5,1.9,1.1l9.1,9.1C-207,436.7-206.7,438.1-207,439.4z"/>
</svg>
