<?xml version="1.0" encoding="utf-8"?>
<!-- Generator: Adobe Illustrator 19.0.0, SVG Export Plug-In . SVG Version: 6.00 Build 0)  -->
<svg version="1.1" id="图层_1" xmlns="http://www.w3.org/2000/svg" xmlns:xlink="http://www.w3.org/1999/xlink" x="0px" y="0px"
	 viewBox="-265 388.9 64 64" style="enable-background:new -265 388.9 64 64;" xml:space="preserve">
<path d="M-206.8,435.4v1.6h-16.7c-2.7,0-5.6,1.7-6.8,4.1l-2.6,5l-2.6-5c-1.2-2.4-4.1-4.1-6.8-4.1h-16.7v-42.4h52.4V435.4z
	 M-206.3,388.9h-53.3c-2.9,0-5.3,2.5-5.3,5.6v42.9c0,3.1,2.4,5.6,5.3,5.6h17.2c0.5,0,1.4,0.5,1.7,1l3.5,6.5l0.3,0.4
	c1,1.3,2.5,2.1,4.1,2.1c1.6,0,3-0.8,4.1-2.1l3.7-7c0.2-0.4,1.1-1,1.7-1h17.2c2.9,0,5.3-2.5,5.3-5.6v-42.9
	C-201,391.4-203.4,388.9-206.3,388.9z"/>
<path d="M-249,412.2c-1.1,0-2.1,0.4-2.9,1.1c-0.9,0.8-1.5,2-1.5,3.2c0,1.3,0.6,2.4,1.5,3.2c0.8,0.7,1.8,1.1,2.9,1.1
	c2.4,0,4.4-2,4.4-4.4C-244.6,414.1-246.6,412.2-249,412.2 M-217,412.2c-2.4,0-4.4,2-4.4,4.4c0,2.4,2,4.4,4.4,4.4
	c1.1,0,2.1-0.4,2.9-1.1c0.9-0.8,1.5-1.9,1.5-3.2c0-1.2-0.5-2.4-1.5-3.2C-214.9,412.6-215.9,412.2-217,412.2 M-233,412.2
	c-1.1,0-2.1,0.4-2.9,1.1c-0.9,0.8-1.5,2-1.5,3.2c0,1.3,0.6,2.4,1.5,3.2c0.8,0.7,1.8,1.1,2.9,1.1c1.1,0,2.1-0.4,2.9-1.1
	c0.9-0.8,1.5-1.9,1.5-3.2c0-1.2-0.5-2.4-1.5-3.2C-230.9,412.6-231.9,412.2-233,412.2"/>
</svg>
