<?xml version="1.0" encoding="utf-8"?>
<!-- Generator: Adobe Illustrator 19.0.0, SVG Export Plug-In . SVG Version: 6.00 Build 0)  -->
<svg version="1.1" id="图层_1" xmlns="http://www.w3.org/2000/svg" xmlns:xlink="http://www.w3.org/1999/xlink" x="0px" y="0px"
	 viewBox="-265 388.9 64 64" style="enable-background:new -265 388.9 64 64;fill:#fff" xml:space="preserve">
<path d="M-206.3,442.2l-53.3,0v-32.5l25.2,16.1c0.9,0.6,2,0.6,2.9,0l25.2-16.1L-206.3,442.2z M-259.7,399.5L-259.7,399.5h53.3v3.9
	l-26.7,17l-26.7-17V399.5z M-206.3,394.2h-53.3c-2.9,0-5.3,2.4-5.3,5.3v42.7c0,2.9,2.4,5.3,5.3,5.3h53.3c2.9,0,5.3-2.4,5.3-5.3
	v-42.7C-201,396.6-203.4,394.2-206.3,394.2z"/>
</svg>
