<?xml version="1.0" encoding="utf-8"?>
<!-- Generator: Adobe Illustrator 19.0.0, SVG Export Plug-In . SVG Version: 6.00 Build 0)  -->
<svg version="1.1" id="图层_1" xmlns="http://www.w3.org/2000/svg" xmlns:xlink="http://www.w3.org/1999/xlink" x="0px" y="0px"
	 viewBox="-265 388.9 64 64" style="enable-background:new -265 388.9 64 64;" xml:space="preserve">
<path d="M-207,419.3c-2.1-3.3-3-6.9-3.6-10.7c-2-13.8-15.6-22.8-28.8-18.7c-8.7,2.7-14,8.8-15.8,17.8c-0.8,4.2-1.6,8.3-4,12.1
	c-2.4,3.8-3.1,8.2-2.8,12.7c0.2,2.6,1,5,2.9,6.9c0.6,0.6,1.2,1.5,1.1,2.3c-0.2,5.5,3,8.4,7.6,10c5.1,1.8,10.3,1.7,15.3-0.4
	c1.4-0.6,2.5-0.8,3.9-0.1c4.1,2,8.6,2,13,1.2c7-1.3,10.1-5,10.1-12c2.2-1.6,3.6-3.8,3.9-6.6C-203.6,428.6-204.2,423.7-207,419.3z
	 M-209.8,431.2c0,1.3-0.6,2.6-1.1,4.7c-1.8-1.5-2.8-2.4-3.9-3.3c-1.2,1.9-2.4,3.7-3.7,5.7c0.8,0.4,1.7,0.7,2.3,1.3
	c0.9,0.8,1.9,1.8,2.1,2.9c0.3,1.5-1.1,2.5-2.4,3c-4.1,1.9-8.4,2.1-12.5,0c-2.9-1.4-5.2-1.5-8.1,0c-3.8,2-7.8,1.8-11.8,0.3
	c-0.4-0.2-0.9-0.4-1.2-0.6c-2.6-1.6-2.7-3.7-0.1-5.4c0.9-0.6,1.8-1,2.8-1.5c-1.3-2-2.4-3.8-3.7-5.8c-1.1,0.9-2.1,1.8-3.2,2.8
	c-2-1.5-1.9-3.5-1.8-5.3c0.2-3.8,1.2-7.3,3.8-10.2c1-1.1,1.3-2.3,1.5-3.7c0.4-3.2,1-6.4,1.9-9.5c2.2-7.5,9.2-12.4,16.9-12
	c7.5,0.4,13.9,5.9,15.4,13.3c0.7,3.2,1.1,6.4,1.8,9.5c0.2,0.9,0.9,1.8,1.6,2.6C-210.8,423.5-209.7,427.2-209.8,431.2z"/>
</svg>
