<?xml version="1.0" encoding="utf-8"?>
<!-- Generator: Adobe Illustrator 19.0.0, SVG Export Plug-In . SVG Version: 6.00 Build 0)  -->
<svg version="1.1" id="图层_1" xmlns="http://www.w3.org/2000/svg" xmlns:xlink="http://www.w3.org/1999/xlink" x="0px" y="0px"
	 viewBox="-265 388.9 64 64" style="enable-background:new -265 388.9 64 64;fill:#fff" xml:space="preserve">
<path d="M-243.7,417.2c-2.3,0-4.1-1.8-4.1-4.1c0,0,0,0,0-0.1c0-2.3,1.8-4.1,4.1-4.1c2.3,0,4.1,1.8,4.1,4.1
	C-239.5,415.4-241.4,417.2-243.7,417.2z M-222.2,417.2c-2.3,0-4.1-1.8-4.1-4.1c0,0,0,0,0-0.1c0-2.3,1.8-4.1,4.1-4.1
	c2.3,0,4.1,1.8,4.1,4.1C-218,415.4-219.9,417.2-222.2,417.2z M-249.6,442.1l2.3-1.4c2.6-1.6,5.7-2.2,8.7-1.7
	c0.7,0.1,1.2,0.2,1.7,0.2c1.3,0.2,2.6,0.3,4,0.3c14.3,0,25.5-9.7,25.5-21.3s-11.2-21.3-25.5-21.3c-14.3,0-25.5,9.7-25.5,21.3
	c0,4.4,1.6,8.6,4.6,12.2c0.2,0.2,0.4,0.4,0.7,0.8c2.6,2.7,3.9,6.3,3.6,10L-249.6,442.1L-249.6,442.1z M-251.7,450.9
	c-1.5,0.9-3.5,0.5-4.4-1c-0.4-0.6-0.5-1.3-0.5-2l0.6-7.3c0.2-1.8-0.5-3.7-1.8-5c-0.3-0.3-0.7-0.7-1-1.1c-3.9-4.6-6.1-10.2-6.1-16.3
	c0-15.3,14.3-27.7,31.9-27.7s31.9,12.4,31.9,27.7c0,15.3-14.3,27.7-31.9,27.7c-1.6,0-3.3-0.1-4.8-0.3c-0.6-0.1-1.2-0.2-1.8-0.3
	c-1.5-0.2-3.1,0.1-4.4,0.9L-251.7,450.9L-251.7,450.9z"/>
</svg>
